<svg xmlns="http://www.w3.org/2000/svg" xmlns:xlink="http://www.w3.org/1999/xlink" version="1.1" x="0px" y="0px" viewBox="0 0 90 90" enable-background="new 0 0 90 90" xml:space="preserve"><g><path d="M21.625,53.068c-0.412,0-0.822-0.169-1.119-0.5L8.58,39.229c-0.512-0.573-0.509-1.439,0.007-2.008l11.926-13.15   c0.557-0.613,1.505-0.659,2.119-0.104c0.614,0.557,0.66,1.505,0.104,2.119L11.717,38.236l11.026,12.332   c0.552,0.618,0.499,1.566-0.118,2.118C22.338,52.942,21.981,53.068,21.625,53.068z"/><path d="M55.7,53.068c-0.355,0-0.713-0.126-0.999-0.382c-0.617-0.552-0.67-1.5-0.118-2.118l11.025-12.332L54.59,26.087   c-0.557-0.614-0.51-1.563,0.104-2.119c0.614-0.556,1.563-0.509,2.119,0.104l11.926,13.15c0.516,0.569,0.519,1.435,0.007,2.008   L56.819,52.568C56.523,52.899,56.112,53.068,55.7,53.068z"/><circle cx="29.213" cy="49.318" r="2.5"/><circle cx="38.661" cy="49.318" r="2.5"/><circle cx="48.078" cy="49.318" r="2.5"/><path d="M38.661,76.516c-21.059,0-38.192-17.133-38.192-38.192S17.602,0.132,38.661,0.132c21.058,0,38.191,17.133,38.191,38.192   c0,5.409-1.108,10.637-3.293,15.538c-0.337,0.757-1.225,1.099-1.98,0.76c-0.757-0.338-1.097-1.225-0.76-1.98   c2.013-4.515,3.033-9.332,3.033-14.317c0-19.405-15.786-35.192-35.191-35.192S3.469,18.919,3.469,38.324   s15.787,35.192,35.192,35.192c4.651,0,9.17-0.893,13.432-2.654c0.769-0.315,1.644,0.049,1.96,0.813   c0.316,0.766-0.048,1.644-0.813,1.96C48.612,75.546,43.707,76.516,38.661,76.516z"/></g><g><g><path d="M83.386,89.615c-1.493,0-2.903-0.568-3.983-1.606c-0.597-0.574-0.615-1.523-0.041-2.121    c0.576-0.596,1.523-0.615,2.121-0.041c0.53,0.51,1.242,0.81,1.96,0.768c0.733-0.014,1.418-0.313,1.928-0.844    c1.051-1.093,1.018-2.837-0.076-3.889c-0.597-0.574-0.615-1.523-0.041-2.121c0.575-0.596,1.524-0.616,2.121-0.041    c2.285,2.198,2.356,5.846,0.158,8.131c-1.064,1.107-2.496,1.733-4.031,1.764C83.462,89.614,83.424,89.615,83.386,89.615z"/><path d="M62.906,73.468c-0.281,0-0.563-0.012-0.846-0.034c-5.771-0.459-10.094-5.527-9.637-11.298    c0.178-1.578,1.319-3.79,3.757-3.79c0.065,0,0.133,0.001,0.201,0.005c2.583,0.127,3.756,2.234,3.773,4.268    c0.012,1.437,0.881,2.959,2.519,3.09c1.511,0.117,2.837-1.013,2.958-2.524c0.171-2.145-2.058-2.832-2.744-2.992    c-1.223-0.284-3.103-1.529-3.269-3.795c-0.083-1.121,0.34-2.199,1.16-2.955c0.831-0.765,1.945-1.103,3.057-0.928    c5.867,0.925,9.96,5.776,9.521,11.285c-0.085,1.083-0.216,1.926-0.388,2.504c-0.235,0.794-1.071,1.251-1.865,1.01    c-0.794-0.236-1.246-1.071-1.01-1.865c0.105-0.355,0.207-1.061,0.272-1.885c0.317-3.996-2.625-7.396-6.997-8.086    c-0.198-0.026-0.404,0.031-0.558,0.172c-0.103,0.095-0.221,0.263-0.201,0.528c0.049,0.668,0.728,1.04,0.956,1.093    c3.308,0.77,5.291,3.185,5.055,6.152c-0.251,3.16-3.051,5.536-6.186,5.276c-3.033-0.241-5.254-2.788-5.281-6.055    c-0.011-1.252-0.672-1.284-0.92-1.297c-0.011,0-0.021-0.001-0.031-0.001c-0.665,0-0.794,1.066-0.795,1.077    c-0.321,4.071,2.767,7.692,6.889,8.021c1.074,0.085,2.135-0.056,3.142-0.421c0.78-0.283,1.639,0.12,1.921,0.899    s-0.121,1.64-0.899,1.921C65.313,73.258,64.121,73.468,62.906,73.468z"/><path d="M80.436,88.385c-0.399,0-0.798-0.159-1.094-0.473L64.961,72.6c-0.566-0.604-0.537-1.554,0.066-2.121    c0.604-0.565,1.552-0.536,2.121,0.066l14.381,15.313c0.566,0.604,0.537,1.554-0.066,2.121    C81.173,88.25,80.804,88.385,80.436,88.385z"/><path d="M86.448,82.388c-0.386,0-0.771-0.147-1.064-0.442L70.468,66.933c-0.584-0.588-0.58-1.538,0.007-2.122    c0.589-0.583,1.537-0.58,2.122,0.007L87.513,79.83c0.584,0.588,0.58,1.538-0.007,2.122C87.213,82.242,86.83,82.388,86.448,82.388z    "/><path fill="none" stroke="#000000" stroke-width="3" stroke-linecap="round" stroke-linejoin="round" stroke-miterlimit="10" d="    M63.451,58.76"/></g></g></svg>
