<svg xmlns="http://www.w3.org/2000/svg" xmlns:xlink="http://www.w3.org/1999/xlink" version="1.1" x="0px" y="0px" viewBox="0 0 72 72" enable-background="new 0 0 72 72"><g><g><path fill="#000000" d="M71.5,10.9v50.2c0,1.1-0.9,2-2,2h-67c-1.1,0-2-0.9-2-2V10.9c0-1.1,0.9-2,2-2h67    C70.6,8.9,71.5,9.8,71.5,10.9z M67.5,57.6V14.4c0-0.8-0.7-1.5-1.5-1.5H6c-0.8,0-1.5,0.7-1.5,1.5v43.1c0,0.8,0.7,1.5,1.5,1.5H66    C66.8,59.1,67.5,58.4,67.5,57.6z"/></g><g><path fill="#000000" d="M18.4,49.2c-0.4,0.2-0.8,0.2-1.2,0.2c-0.2,0-0.3,0-0.5,0c-0.5,0.3-1,0.5-1.6,0.5c-0.6,0-1.1-0.2-1.6-0.4    c-0.1,0-0.1,0-0.2,0c-0.1,0-0.3,0-0.4,0c-0.4,0-0.8-0.1-1.2-0.2c-0.3-0.1-0.5-0.3-0.8-0.5c-0.1-0.1-0.3-0.1-0.4,0l-3.4,4.7    c-0.1,0.2,0,0.4,0.2,0.4L9.6,54c0.1,0,0.2,0.1,0.2,0.2l0.8,2.1c0.1,0.2,0.3,0.2,0.5,0.1l3.8-5.1c0.1-0.1,0.3-0.1,0.4,0l3.8,5.1    c0.1,0.2,0.4,0.1,0.5-0.1l0.8-2.1c0-0.1,0.1-0.2,0.2-0.2l2.3-0.1c0.2,0,0.3-0.3,0.2-0.4l-3.5-4.7c-0.1-0.1-0.3-0.2-0.4,0    C18.9,48.9,18.7,49.1,18.4,49.2z"/><path fill="#000000" d="M22,41.4c0-0.3-0.1-0.6-0.3-0.9c-0.2-0.2-0.2-0.6-0.2-0.8c0.1-0.3,0.1-0.6-0.1-0.9    c-0.1-0.3-0.4-0.5-0.6-0.7c-0.2-0.1-0.4-0.4-0.4-0.6c0-0.3-0.2-0.6-0.4-0.8c-0.2-0.2-0.5-0.4-0.8-0.4c-0.3,0-0.5-0.2-0.6-0.4    c-0.2-0.3-0.4-0.5-0.7-0.6c-0.3-0.1-0.6-0.2-1-0.1c-0.3,0.1-0.6,0-0.9-0.2c-0.2-0.2-0.6-0.3-0.9-0.3c-0.3,0-0.6,0.1-0.9,0.3    c-0.2,0.2-0.6,0.2-0.8,0.2c-0.3-0.1-0.6-0.1-0.9,0.1c-0.3,0.1-0.5,0.4-0.7,0.6c-0.1,0.2-0.4,0.4-0.6,0.4c-0.3,0-0.6,0.2-0.8,0.4    c-0.2,0.2-0.4,0.5-0.4,0.8c0,0.3-0.2,0.5-0.4,0.6c-0.3,0.2-0.5,0.4-0.6,0.7c-0.1,0.3-0.2,0.6-0.1,1c0.1,0.3,0,0.6-0.2,0.9    c-0.2,0.2-0.3,0.6-0.3,0.9c0,0.3,0.1,0.6,0.3,0.9c0.2,0.2,0.2,0.6,0.2,0.8c-0.1,0.3-0.1,0.6,0.1,0.9c0.1,0.3,0.4,0.5,0.6,0.7    c0.2,0.1,0.4,0.4,0.4,0.6c0,0.3,0.2,0.6,0.4,0.8c0.2,0.2,0.5,0.4,0.8,0.4c0.3,0,0.5,0.2,0.6,0.4c0.2,0.3,0.4,0.5,0.7,0.6    c0.3,0.1,0.6,0.2,1,0.1c0.3-0.1,0.6,0,0.9,0.2c0.2,0.2,0.6,0.3,0.9,0.3c0.3,0,0.6-0.1,0.9-0.3c0.2-0.2,0.6-0.2,0.8-0.2    c0.3,0.1,0.6,0.1,0.9-0.1c0.3-0.1,0.5-0.4,0.7-0.6c0.1-0.2,0.4-0.4,0.6-0.4c0.3,0,0.6-0.2,0.8-0.4c0.2-0.2,0.4-0.5,0.4-0.8    c0-0.3,0.2-0.5,0.4-0.6c0.3-0.2,0.5-0.4,0.6-0.7c0.1-0.3,0.2-0.6,0.1-1c-0.1-0.3,0-0.6,0.2-0.9C21.8,42.1,22,41.8,22,41.4z"/></g><g><path fill="#000000" d="M58.3,30c-0.5,0-0.9-0.2-1.2-0.6c-4.1-5.9-12.2-9.6-21.1-9.6c-8.9,0-16.9,3.7-21.1,9.6    c-0.5,0.7-1.4,0.8-2.1,0.4c-0.7-0.5-0.8-1.4-0.4-2.1c4.7-6.7,13.7-10.9,23.5-10.9c9.8,0,18.8,4.2,23.5,10.9    c0.5,0.7,0.3,1.6-0.4,2.1C58.9,29.9,58.6,30,58.3,30z"/></g><circle fill="#000000" cx="35.9" cy="30.1" r="4.8"/><g><path fill="#000000" d="M60.7,45.1H30.1c-0.8,0-1.5-0.7-1.5-1.5c0-0.8,0.7-1.5,1.5-1.5h30.5c0.8,0,1.5,0.7,1.5,1.5    C62.2,44.4,61.5,45.1,60.7,45.1z"/></g><g><path fill="#000000" d="M60.7,54.1H30.1c-0.8,0-1.5-0.7-1.5-1.5c0-0.8,0.7-1.5,1.5-1.5h30.5c0.8,0,1.5,0.7,1.5,1.5    C62.2,53.4,61.5,54.1,60.7,54.1z"/></g></g></svg>
