<svg xmlns="http://www.w3.org/2000/svg" xmlns:xlink="http://www.w3.org/1999/xlink" version="1.1" x="0px" y="0px" viewBox="0 0 32 32" enable-background="new 0 0 32 32" xml:space="preserve"><g display="none"><rect x="-301.194" y="-118.134" display="inline" fill="#000000" width="421.212" height="207"/></g><g><path d="M23.266,14.873c1.595,0,2.893,1.298,2.893,2.893s-1.298,2.893-2.893,2.893s-2.893-1.298-2.893-2.893   S21.67,14.873,23.266,14.873 M23.266,13.873c-2.15,0-3.893,1.743-3.893,3.893c0,2.15,1.743,3.893,3.893,3.893   c2.15,0,3.893-1.743,3.893-3.893C27.159,15.616,25.416,13.873,23.266,13.873L23.266,13.873z"/><polygon points="25.696,26.938 23.399,24.312 20.995,26.917 20.995,20.783 21.995,20.783 21.995,24.358 23.419,22.815    24.696,24.275 24.696,20.709 25.696,20.709  "/><path d="M31,3.562v24.875H1V3.562H31 M32,2.562H0v26.875h32V2.562L32,2.562z"/><rect x="4.273" y="6.933" width="23.453" height="1"/><rect x="4.273" y="10.183" width="23.453" height="1"/><g><rect x="4.273" y="16.183" width="11.12" height="1"/></g><g><rect x="4.273" y="19.974" width="11.12" height="1"/></g><g><rect x="4.273" y="23.766" width="11.12" height="1"/></g></g></svg>
