<svg xmlns="http://www.w3.org/2000/svg" xmlns:xlink="http://www.w3.org/1999/xlink" version="1.1" x="0px" y="0px" viewBox="0 0 100 100" enable-background="new 0 0 100 86.111" xml:space="preserve"><circle cx="50" cy="8.333" r="8.333"/><path d="M61.109,19.445h-22.22c-6.945,0-9.723,5.556-9.723,9.723v9.723v2.777h6.944V38.89v-8.333h2.778v8.333v2.777h22.221V38.89  v-8.333h2.779v8.333v2.777h6.943V38.89v-9.723C70.833,25,68.057,19.445,61.109,19.445z"/><path d="M-287.723-154.111l-5.555-16.666v-4.167h-81.946v36.109H-378v6.25h17.535c0-5.752,4.663-10.416,10.417-10.416  c5.753,0,10.417,4.664,10.417,10.416h32.464c0-5.752,4.663-10.416,10.417-10.416c4.047,0,7.548,2.313,9.271,5.686  c0.619,1.212,1.006,2.563,1.106,3.992c0.017,0.245,0.038,0.49,0.038,0.738H-278v-17.358L-287.723-154.111z M-305.777-154.111v-12.5  h9.723l4.166,12.5H-305.777z"/><path d="M-350.048-140.221c-4.219,0-7.639,3.422-7.639,7.639c0,4.219,3.42,7.64,7.639,7.64c4.218,0,7.638-3.421,7.638-7.64  C-342.41-136.8-345.831-140.221-350.048-140.221z M-350.048-128.417c-2.301,0-4.167-1.864-4.167-4.168  c0-2.301,1.866-4.166,4.167-4.166c2.3,0,4.167,1.865,4.167,4.166C-345.881-130.281-347.749-128.417-350.048-128.417z"/><path d="M-296.75-140.221c-4.219,0-7.641,3.422-7.641,7.639c0,4.219,3.422,7.64,7.641,7.64s7.641-3.421,7.641-7.64  C-289.109-136.8-292.531-140.221-296.75-140.221z M-296.75-128.417c-2.301,0-4.167-1.864-4.167-4.168  c0-2.301,1.866-4.166,4.167-4.166s4.167,1.865,4.167,4.166C-292.583-130.281-294.449-128.417-296.75-128.417z"/><path d="M94.443,44.446H5.556H0v6.943h5.556v34.723h88.887V51.389H100v-6.943H94.443z M64.583,73.064  C61.051,73.235,54.109,73.916,50,76.603c-4.109-2.688-11.047-3.368-14.583-3.539V56.402c4.585,0.246,10.888,1.273,13.108,3.494  c0.814,0.814,2.134,0.814,2.947,0c2.221-2.221,8.523-3.248,13.109-3.494L64.583,73.064L64.583,73.064z"/></svg>
