<svg xmlns="http://www.w3.org/2000/svg" xmlns:xlink="http://www.w3.org/1999/xlink" version="1.1" x="0px" y="0px" viewBox="0 0 100 100" enable-background="new 0 0 100 100" xml:space="preserve"><path d="M90.922,29.839c1.39-0.351,2.32-1.047,2.79-2.096l5.461-12.591c0.39-0.897,0.476-2.648-1.006-3.372  c-1.478-0.728-3.144,0.122-3.687,1.376l-4.546,9.915L76.43,25.401L59.724,11.277c-1.201-1.015-2.997-0.867-4.008,0.334  c-1.015,1.201-0.865,2.995,0.334,4.008l15.801,13.359L65.534,42.61c-0.604,1.325-0.839,2.661-0.706,4.017  c0.103,1.041,0.385,1.955,0.826,2.762c0.021,0.049,4.543,9.352,4.543,9.352l-11.274-0.037c-0.004,0-0.008,0-0.013,0  c-2.158,0-3.909,1.745-3.918,3.905c-0.004,2.165,1.743,3.925,3.907,3.929l17.568,0.058c0.003,0,0.009,0,0.011,0  c1.35,0,2.604-0.693,3.319-1.834c0.721-1.148,0.796-2.587,0.205-3.801l-4.451-9.118l10.266-4.303l4.017,10.875  c0.619,1.517,2.767,2.715,4.602,2.056c2.031-0.728,3.051-2.719,2.327-4.573L91.222,40.34c-0.42-0.852-0.46-1.344-1.923-1.991  c-1.147-0.51-3.112,0.218-3.216,0.274l-7.427,2.689l4.489-9.6L90.922,29.839z"/><path d="M84.354,16.216c1.053,2.922-0.463,6.14-3.387,7.196c-2.921,1.049-6.143-0.467-7.194-3.387  c-1.053-2.924,0.465-6.145,3.388-7.196C80.082,11.776,83.302,13.294,84.354,16.216z"/><path d="M3.515,49.26c-0.373,0-0.723-0.066-1.052-0.197c-0.679-0.287-1.205-0.812-1.49-1.492c-0.263-0.679-0.263-1.424,0.021-2.105  c0.548-1.359,2.215-2.038,3.573-1.469c0.68,0.285,1.207,0.812,1.47,1.49c0.285,0.681,0.285,1.426,0,2.083  C5.621,48.603,4.611,49.26,3.515,49.26L3.515,49.26z M8.295,41.433c-0.657,0-1.272-0.219-1.776-0.636  c-0.548-0.46-0.898-1.139-0.964-1.862C5.489,38.21,5.73,37.508,6.19,36.938c0.92-1.118,2.74-1.271,3.858-0.33  c1.163,0.965,1.315,2.698,0.351,3.858C9.874,41.082,9.106,41.433,8.295,41.433L8.295,41.433z M57.818,38.386  c-0.677,0-1.336-0.242-1.841-0.724c-1.118-1.008-1.203-2.74-0.176-3.858c0.989-1.075,2.785-1.163,3.86-0.175  c1.117,1.008,1.205,2.762,0.196,3.858C59.334,38.056,58.587,38.386,57.818,38.386L57.818,38.386z M15.135,35.316  c-0.92,0-1.776-0.439-2.28-1.206c-0.416-0.614-0.548-1.338-0.416-2.062c0.153-0.724,0.569-1.336,1.184-1.732  c1.206-0.833,2.981-0.46,3.793,0.748c0.833,1.248,0.504,2.958-0.768,3.792C16.188,35.162,15.661,35.316,15.135,35.316L15.135,35.316  z M50.256,33.211c-0.438,0-0.855-0.109-1.228-0.306c-0.657-0.309-1.14-0.878-1.381-1.58c-0.22-0.679-0.176-1.424,0.153-2.081  c0.657-1.317,2.346-1.886,3.684-1.229c0.635,0.33,1.14,0.878,1.358,1.578c0.242,0.703,0.197,1.447-0.131,2.083  C52.23,32.62,51.286,33.211,50.256,33.211L50.256,33.211z M23.378,31.304c-1.184,0-2.214-0.745-2.586-1.884  c-0.242-0.681-0.175-1.426,0.153-2.083s0.876-1.141,1.579-1.359c1.337-0.482,3.002,0.328,3.463,1.732  c0.482,1.447-0.306,2.98-1.753,3.464C23.97,31.261,23.664,31.304,23.378,31.304L23.378,31.304z M41.575,30.229  c-0.176,0-0.373-0.021-0.548-0.043c-1.491-0.306-2.456-1.753-2.148-3.246c0.285-1.445,1.732-2.432,3.222-2.147  c1.491,0.306,2.434,1.753,2.148,3.244C43.987,29.308,42.868,30.229,41.575,30.229L41.575,30.229z M32.411,29.593  c-1.447,0-2.653-1.139-2.74-2.586c-0.044-0.724,0.197-1.424,0.68-1.972c0.482-0.526,1.118-0.856,1.82-0.899  c0.044-0.023,0.065-0.023,0.087-0.023c1.601,0,2.806,1.141,2.894,2.588c0.044,0.724-0.219,1.424-0.701,1.972  c-0.482,0.548-1.163,0.878-1.886,0.92C32.542,29.593,32.411,29.593,32.411,29.593L32.411,29.593z"/><polygon points="43.127,85.806 43.127,41.535 27.96,41.535 27.96,85.806 1.651,85.806 1.651,89.095 68.883,89.095 68.883,85.806 "/></svg>
