<svg xmlns="http://www.w3.org/2000/svg" xmlns:xlink="http://www.w3.org/1999/xlink" version="1.1" x="0px" y="0px" viewBox="0 0 64 64" style="enable-background:new 0 0 64 64;" xml:space="preserve"><path d="M61,42h-0.82l1.806-10.836c0.048-0.29-0.033-0.586-0.223-0.811S61.294,30,61,30h-2.684l1.597-3.594l-1.827-0.812L56.128,30  h-6.256l-1.958-4.406l-1.827,0.812L47.684,30H45c-0.294,0-0.573,0.129-0.763,0.354s-0.271,0.521-0.223,0.811L45.82,42H44v-3  c0-0.553-0.448-1-1-1h-2v-9c0-2.483-1.824-4.533-4.2-4.919C38.151,22.804,39,21.001,39,19c0-3.859-3.14-7-7-7s-7,3.141-7,7  c0,2.001,0.849,3.804,2.2,5.081C24.824,24.467,23,26.517,23,29v5h-6c-0.552,0-1,0.447-1,1v3h-4v-7h7c0.552,0,1-0.447,1-1V18  c0-0.553-0.448-1-1-1H3c-0.552,0-1,0.447-1,1v12c0,0.553,0.448,1,1,1h7v7H3c-0.552,0-1,0.447-1,1v18c0,0.553,0.448,1,1,1h1v3  c0,0.553,0.448,1,1,1h54c0.552,0,1-0.447,1-1v-3h1c0.552,0,1-0.447,1-1V43C62,42.447,61.552,42,61,42z M4,19h14v10H4V19z M46.181,32  h2.392l1.514,3.406l1.827-0.812L50.761,32h4.478l-1.153,2.594l1.827,0.812L57.427,32h2.392l-1.667,10H47.847L46.181,32z M27,19  c0-2.757,2.243-5,5-5s5,2.243,5,5s-2.243,5-5,5S27,21.757,27,19z M18,36h6c0.552,0,1-0.447,1-1v-6c0-1.654,1.346-3,3-3h8  c1.654,0,3,1.346,3,3v9h-2v-8c0-0.553-0.448-1-1-1s-1,0.447-1,1v8h-6v-8c0-0.553-0.448-1-1-1s-1,0.447-1,1v8h-9V36z M58,60H6v-2h52  V60z M60,56h-1H5H4V40h13h23h2v3c0,0.553,0.448,1,1,1h4h12h1V56z"/><rect x="6" y="21" width="5" height="2"/><rect x="14" y="21" width="2" height="2"/><rect x="6" y="25" width="5" height="2"/><rect x="14" y="25" width="2" height="2"/><path d="M61,2H45c-0.552,0-1,0.447-1,1v16c0,0.553,0.448,1,1,1h16c0.552,0,1-0.447,1-1V3C62,2.447,61.552,2,61,2z M60,18H46V4h14V18  z"/><rect x="48" y="6" width="10" height="2"/><rect x="48" y="10" width="10" height="2"/><rect x="48" y="14" width="10" height="2"/></svg>
